<?xml version="1.0" encoding="UTF-8"?>
<!DOCTYPE svg PUBLIC "-//W3C//DTD SVG 1.1//EN" "http://www.w3.org/Graphics/SVG/1.1/DTD/svg11.dtd">
<!-- Creator: CorelDRAW 2017 -->
<svg xmlns="http://www.w3.org/2000/svg" xml:space="preserve" width="11.2948mm" height="11.2948mm" version="1.1" style="shape-rendering:geometricPrecision; text-rendering:geometricPrecision; image-rendering:optimizeQuality; fill-rule:evenodd; clip-rule:evenodd"
viewBox="0 0 225.73 225.73"
 xmlns:xlink="http://www.w3.org/1999/xlink">
 <defs>
  <style type="text/css">
   <![CDATA[
    .fil1 {fill:black}
    .fil0 {fill:#D2D264}
   ]]>
  </style>
 </defs>
 <g id="Capa_x0020_1">
  <metadata id="CorelCorpID_0Corel-Layer"/>
  <circle class="fil0" cx="112.87" cy="112.87" r="112.87"/>
  <path class="fil1" d="M39.33 66.43l0 89.64 45.76 0c18.21,-1.08 29.21,-10.23 29.21,-28.67 0,-8.26 -5.66,-17.05 -13.86,-18.98 0,0 11.44,-5.25 11.44,-18.71 0,-13.46 -11.17,-23.29 -25.71,-23.29 -14.54,0 -46.84,0 -46.84,0zm100.33 61.78l46.71 0c0,0 2.56,-39.98 -32.17,-39.98 -34.73,0 -32.57,37.02 -30.28,47.11 2.29,10.09 10.23,23.96 30.28,23.96 20.06,0 28,-11.84 29.48,-14.67 1.48,-2.83 1.88,-6.86 1.88,-6.86l-16.69 0c0,0 -2.56,7.4 -14.67,7.4 -12.11,0 -14.94,-11.17 -14.54,-16.96zm14.54 -10.63l-14.27 0c0,0 0.81,-14.4 14.27,-14.4 13.46,0 14.27,14.4 14.27,14.4l-14.27 0zm-21.19 -47.38l38.77 0 0 11.31 -38.77 0 0 -11.31zm-75.78 45.9l0 25.04 26.47 0c0,0 11.75,-0.85 11.75,-12.52 0,-11.67 -11.89,-12.01 -11.89,-12.01l-26.33 -0.51zm0 -34.32l0 19.92 25.17 0c0,0 11.17,-0.67 11.17,-9.96 0,-9.29 -11.31,-9.56 -11.31,-9.56l-25.03 -0.41z"/>
 </g>
</svg>
