<?xml version="1.0" encoding="UTF-8"?>
<!DOCTYPE svg PUBLIC "-//W3C//DTD SVG 1.1//EN" "http://www.w3.org/Graphics/SVG/1.1/DTD/svg11.dtd">
<!-- Creator: CorelDRAW 2017 -->
<svg xmlns="http://www.w3.org/2000/svg" xml:space="preserve" width="5.0716mm" height="5.0716mm" version="1.1" style="shape-rendering:geometricPrecision; text-rendering:geometricPrecision; image-rendering:optimizeQuality; fill-rule:evenodd; clip-rule:evenodd"
viewBox="0 0 51.55 51.55"
 xmlns:xlink="http://www.w3.org/1999/xlink">
 <defs>
  <style type="text/css">
   <![CDATA[
    .fil1 {fill:#373435}
    .fil0 {fill:#D2D264}
   ]]>
  </style>
 </defs>
 <g id="Capa_x0020_1">
  <metadata id="CorelCorpID_0Corel-Layer"/>
  <circle class="fil0" cx="25.78" cy="25.78" r="25.78"/>
  <path class="fil1" d="M25.78 13.82c0,0 -1.04,-0.11 -1.94,-0.45 -0.9,-0.34 -1.24,-0.79 -1.24,-0.79 0,0 -2.87,-0.28 -6.22,1.63 -3.35,1.91 -6,3.86 -6,3.86l3.86 6.9 3.21 -1.44 0 15.45 8.33 0 8.33 0 0 -15.45 3.21 1.44 3.86 -6.9c0,0 -2.65,-1.94 -6,-3.86 -3.35,-1.91 -6.22,-1.63 -6.22,-1.63 0,0 -0.34,0.45 -1.24,0.79 -0.9,0.34 -1.94,0.45 -1.94,0.45z"/>
 </g>
</svg>
