<?xml version="1.0" encoding="UTF-8"?>
<!DOCTYPE svg PUBLIC "-//W3C//DTD SVG 1.1//EN" "http://www.w3.org/Graphics/SVG/1.1/DTD/svg11.dtd">
<!-- Creator: CorelDRAW 2017 -->
<svg xmlns="http://www.w3.org/2000/svg" xml:space="preserve" width="5.0716mm" height="5.0716mm" version="1.1" style="shape-rendering:geometricPrecision; text-rendering:geometricPrecision; image-rendering:optimizeQuality; fill-rule:evenodd; clip-rule:evenodd"
viewBox="0 0 472.38 472.38"
 xmlns:xlink="http://www.w3.org/1999/xlink">
 <defs>
  <style type="text/css">
   <![CDATA[
    .fil1 {fill:#373435}
    .fil0 {fill:#D2D264}
   ]]>
  </style>
 </defs>
 <g id="Capa_x0020_1">
  <metadata id="CorelCorpID_0Corel-Layer"/>
  <circle class="fil0" cx="236.19" cy="236.19" r="236.19"/>
  <path class="fil1" d="M317.13 115.92l-89.75 0 0 56.9 0 11.24 0 20.29 -22.94 -20.29 -22.95 20.29 0 -20.29 0 -11.24 0 -56.9 -18.27 0c0,0 -25.6,1.25 -25.6,24.98 0,23.72 0,192.31 0,192.31 0,0 -3.74,23.1 23.73,23.1 27.47,0 161.09,0 161.09,0 0,0 12.2,3.66 12.48,-22.79 0.01,-0.31 0.01,-0.61 0.01,-0.93l0 -4.8c-2.09,-4.39 -7.65,-4.18 -7.65,-4.18 0,0 -8.43,-0.31 -8.43,8.04l0 10.39 -148.92 0c0,0 -16.86,-0.94 -16.86,-18.42 0,-17.48 16.86,-18.42 16.86,-18.42l152.66 0c0,0 12.33,1.26 12.33,-9.68l0 -4.99c0,-59.5 0,-155.86 0,-155.86 0,-4.06 -2.19,-18.74 -17.8,-18.74z"/>
 </g>
</svg>
