<?xml version="1.0" encoding="UTF-8"?>
<!DOCTYPE svg PUBLIC "-//W3C//DTD SVG 1.1//EN" "http://www.w3.org/Graphics/SVG/1.1/DTD/svg11.dtd">
<!-- Creator: CorelDRAW 2017 -->
<svg xmlns="http://www.w3.org/2000/svg" xml:space="preserve" width="11.2793mm" height="11.2948mm" version="1.1" style="shape-rendering:geometricPrecision; text-rendering:geometricPrecision; image-rendering:optimizeQuality; fill-rule:evenodd; clip-rule:evenodd"
viewBox="0 0 3736.57 3741.7"
 xmlns:xlink="http://www.w3.org/1999/xlink">
 <defs>
  <style type="text/css">
   <![CDATA[
    .fil1 {fill:black}
    .fil0 {fill:#D2D264}
   ]]>
  </style>
 </defs>
 <g id="Capa_x0020_1">
  <metadata id="CorelCorpID_0Corel-Layer"/>
  <rect class="fil0" x="-0.01" y="-0.02" width="3736.55" height="3741.72" rx="472.21" ry="472.21"/>
  <path class="fil1" d="M1444.83 799.93l927.57 0c333.93,0 607.13,273.2 607.13,607.13l0 927.57c0,333.93 -273.2,607.13 -607.13,607.13l-927.57 0c-333.93,0 -607.13,-273.2 -607.13,-607.13l0 -927.57c0,-333.93 273.2,-607.13 607.13,-607.13zm971.34 390.44c70.86,0 128.3,57.44 128.3,128.27 0,70.86 -57.44,128.3 -128.3,128.3 -70.83,0 -128.27,-57.44 -128.27,-128.3 0,-70.83 57.44,-128.27 128.27,-128.27zm-507.55 140.56c298.18,0 539.91,241.73 539.91,539.91 0,298.18 -241.73,539.91 -539.91,539.91 -298.18,0 -539.91,-241.73 -539.91,-539.91 0,-298.18 241.73,-539.91 539.91,-539.91zm0 182.93c197.14,0 356.95,159.84 356.95,356.98 0,197.14 -159.81,356.95 -356.95,356.95 -197.14,0 -356.98,-159.81 -356.98,-356.95 0,-197.14 159.84,-356.98 356.98,-356.98zm-371.03 -499.73l742.06 0c267.14,0 485.68,218.54 485.68,485.68l0 742.06c0,267.14 -218.54,485.68 -485.68,485.68l-742.06 0c-267.14,0 -485.68,-218.54 -485.68,-485.68l0 -742.06c0,-267.14 218.54,-485.68 485.68,-485.68z"/>
 </g>
</svg>
