<?xml version="1.0" encoding="UTF-8"?>
<!DOCTYPE svg PUBLIC "-//W3C//DTD SVG 1.1//EN" "http://www.w3.org/Graphics/SVG/1.1/DTD/svg11.dtd">
<!-- Creator: CorelDRAW 2017 -->
<svg xmlns="http://www.w3.org/2000/svg" xml:space="preserve" width="11.2793mm" height="11.2948mm" version="1.1" style="shape-rendering:geometricPrecision; text-rendering:geometricPrecision; image-rendering:optimizeQuality; fill-rule:evenodd; clip-rule:evenodd"
viewBox="0 0 492.08 492.76"
 xmlns:xlink="http://www.w3.org/1999/xlink">
 <defs>
  <style type="text/css">
   <![CDATA[
    .fil1 {fill:black}
    .fil0 {fill:#D2D264}
   ]]>
  </style>
 </defs>
 <g id="Capa_x0020_1">
  <metadata id="CorelCorpID_0Corel-Layer"/>
  <rect class="fil0" x="0" y="-0" width="492.08" height="492.76" rx="62.19" ry="62.19"/>
  <path class="fil1" d="M215.18 192.02l29.11 0c9.77,0 17.76,8 17.76,17.77l0 5.36c9.74,-11.59 28.88,-26.06 63.76,-26.06 58.18,0 71.4,49.95 71.4,77.28l0 39.53c0.19,1.04 0.29,2.12 0.29,3.22l0 73.18c0,9.77 -8,17.77 -17.77,17.77l-29.1 0c-9.03,0 -16.54,-6.83 -17.63,-15.57l-0.14 0 0 -2.19 0 -73.18 0 -27.17c0,0 -2.35,-38.2 -34.67,-38.2 -32.32,0 -36.14,36.43 -36.14,36.43l0 102.11c0,9.77 -7.99,17.77 -17.76,17.77l-29.11 0c-9.77,0 -17.76,-8 -17.76,-17.77l0 -172.49c0,-9.77 8,-17.77 17.76,-17.77zm-80.06 -99.31c22.39,0 40.55,18.15 40.55,40.55 0,22.39 -18.15,40.55 -40.55,40.55 -22.39,0 -40.55,-18.15 -40.55,-40.55 0,-22.39 18.15,-40.55 40.55,-40.55zm-15.14 99.31l29.1 0c9.77,0 17.77,8 17.77,17.77l0 172.49c0,9.77 -8,17.77 -17.77,17.77l-29.1 0c-9.77,0 -17.77,-8 -17.77,-17.77l0 -172.49c0,-9.77 8,-17.77 17.77,-17.77z"/>
 </g>
</svg>
