<?xml version="1.0" encoding="UTF-8"?>
<!DOCTYPE svg PUBLIC "-//W3C//DTD SVG 1.1//EN" "http://www.w3.org/Graphics/SVG/1.1/DTD/svg11.dtd">
<!-- Creator: CorelDRAW 2017 -->
<svg xmlns="http://www.w3.org/2000/svg" xml:space="preserve" width="11.2948mm" height="11.2948mm" version="1.1" style="shape-rendering:geometricPrecision; text-rendering:geometricPrecision; image-rendering:optimizeQuality; fill-rule:evenodd; clip-rule:evenodd"
viewBox="0 0 376.04 376.04"
 xmlns:xlink="http://www.w3.org/1999/xlink">
 <defs>
  <style type="text/css">
   <![CDATA[
    .fil1 {fill:black}
    .fil0 {fill:#D2D264}
   ]]>
  </style>
 </defs>
 <g id="Capa_x0020_1">
  <metadata id="CorelCorpID_0Corel-Layer"/>
  <path class="fil0" d="M188.02 0c103.84,0 188.02,84.18 188.02,188.02 0,103.84 -84.18,188.02 -188.02,188.02 -38.48,0 -74.25,-11.57 -104.04,-31.4l-71.53 22.02 23.03 -68.71c-22.32,-30.92 -35.48,-68.89 -35.48,-109.93 0,-103.84 84.18,-188.02 188.02,-188.02z"/>
  <path class="fil1" d="M129.44 88.11l19.96 47.09c0,0 4.71,7.62 -1.79,14.35 -6.5,6.73 -15.92,14.8 -15.25,20.18 0.68,5.38 16.82,30.05 34.75,45.07 17.94,15.02 44.4,29.37 52.47,24.21 8.07,-5.16 17.72,-21.52 17.72,-21.52 0,0 3.81,-7.62 14.35,-2.92 10.54,4.71 42.38,20.18 42.38,20.18 0,0 5.16,3.14 3.81,10.09 -1.35,6.95 0,25.34 -23.77,38.12 -23.77,12.78 -41.03,10.99 -76.01,-4.71 -34.98,-15.69 -86.55,-55.16 -106.73,-96.42 -20.18,-41.26 -14.8,-62.11 -1.35,-82.74 13.45,-20.63 36.33,-14.13 39.47,-10.99z"/>
 </g>
</svg>
